<svg xmlns="http://www.w3.org/2000/svg" width="64" height="64" viewBox="-100.0 -100.0 200.0 200.0"><defs><mask id="mw" maskUnits="userSpaceOnUse" x="-100.0" y="-100.0" width="200.0" height="200.0"><circle r="100" fill="white"/><path d="M-137.21,54.95 L-135.99,54.41 L-134.74,53.91 L-133.46,53.45 L-132.16,53.04 L-130.84,52.66 L-129.49,52.32 L-128.11,52.01 L-126.71,51.75 L-125.29,51.52 L-123.84,51.33 L-122.37,51.18 L-120.88,51.05 L-119.36,50.97 L-117.83,50.91 L-116.27,50.88 L-114.70,50.89 L-113.11,50.92 L-111.50,50.98 L-109.87,51.06 L-108.22,51.17 L-106.57,51.31 L-104.89,51.46 L-103.21,51.64 L-101.51,51.83 L-99.80,52.04 L-98.09,52.26 L-96.36,52.50 L-94.62,52.75 L-92.88,53.02 L-91.13,53.29 L-89.38,53.57 L-87.63,53.85 L-85.87,54.14 L-84.11,54.42 L-82.35,54.71 L-80.59,55.00 L-78.84,55.29 L-77.08,55.56 L-75.33,55.84 L-73.59,56.10 L-71.85,56.36 L-70.12,56.60 L-68.40,56.83 L-66.69,57.04 L-64.99,57.24 L-63.30,57.42 L-61.63,57.58 L-59.97,57.72 L-58.32,57.84 L-56.69,57.93 L-55.07,57.99 L-53.47,58.03 L-51.89,58.05 L-50.33,58.03 L-48.79,57.98 L-47.27,57.90 L-45.77,57.79 L-44.30,57.64 L-42.84,57.46 L-41.41,57.24 L-40.01,56.99 L-38.62,56.70 L-37.27,56.37 L-35.93,56.00 L-34.63,55.59 L-33.34,55.15 L-32.09,54.66 L-30.86,54.13 L-29.66,53.56 L-28.48,52.95 L-27.34,52.30 L-26.22,51.60 L-25.12,50.87 L-24.05,50.09 L-23.01,49.27 L-22.00,48.41 L-21.02,47.51 L-20.06,46.57 L-19.12,45.58 L-18.22,44.56 L-17.33,43.50 L-16.48,42.40 L-15.65,41.26 L-14.84,40.08 L-14.05,38.87 L-13.29,37.62 L-12.56,36.33 L-11.84,35.01 L-11.15,33.66 L-10.47,32.28 L-9.82,30.86 L-9.19,29.42 L-8.57,27.95 L-7.97,26.45 L-7.39,24.92 L-6.82,23.38 L-6.27,21.80 L-5.74,20.21 L-5.21,18.60 L-4.70,16.97 L-4.20,15.32 L-3.71,13.65 L-3.22,11.98 L-2.75,10.29 L-2.28,8.59 L-1.82,6.88 L-1.36,5.17 L-0.90,3.45 L-0.45,1.72 L0.00,-0.00 L0.45,-1.72 L0.90,-3.45 L1.36,-5.17 L1.82,-6.88 L2.28,-8.59 L2.75,-10.29 L3.22,-11.98 L3.71,-13.65 L4.20,-15.32 L4.70,-16.97 L5.21,-18.60 L5.74,-20.21 L6.27,-21.80 L6.82,-23.38 L7.39,-24.92 L7.97,-26.45 L8.57,-27.95 L9.19,-29.42 L9.82,-30.86 L10.47,-32.28 L11.15,-33.66 L11.84,-35.01 L12.56,-36.33 L13.29,-37.62 L14.05,-38.87 L14.84,-40.08 L15.65,-41.26 L16.48,-42.40 L17.33,-43.50 L18.22,-44.56 L19.12,-45.58 L20.06,-46.57 L21.02,-47.51 L22.00,-48.41 L23.01,-49.27 L24.05,-50.09 L25.12,-50.87 L26.22,-51.60 L27.34,-52.30 L28.48,-52.95 L29.66,-53.56 L30.86,-54.13 L32.09,-54.66 L33.34,-55.15 L34.63,-55.59 L35.93,-56.00 L37.27,-56.37 L38.62,-56.70 L40.01,-56.99 L41.41,-57.24 L42.84,-57.46 L44.30,-57.64 L45.77,-57.79 L47.27,-57.90 L48.79,-57.98 L50.33,-58.03 L51.89,-58.05 L53.47,-58.03 L55.07,-57.99 L56.69,-57.93 L58.32,-57.84 L59.97,-57.72 L61.63,-57.58 L63.30,-57.42 L64.99,-57.24 L66.69,-57.04 L68.40,-56.83 L70.12,-56.60 L71.85,-56.36 L73.59,-56.10 L75.33,-55.84 L77.08,-55.56 L78.84,-55.29 L80.59,-55.00 L82.35,-54.71 L84.11,-54.42 L85.87,-54.14 L87.63,-53.85 L89.38,-53.57 L91.13,-53.29 L92.88,-53.02 L94.62,-52.75 L96.36,-52.50 L98.09,-52.26 L99.80,-52.04 L101.51,-51.83 L103.21,-51.64 L104.89,-51.46 L106.57,-51.31 L108.22,-51.17 L109.87,-51.06 L111.50,-50.98 L113.11,-50.92 L114.70,-50.89 L116.27,-50.88 L117.83,-50.91 L119.36,-50.97 L120.88,-51.05 L122.37,-51.18 L123.84,-51.33 L125.29,-51.52 L126.71,-51.75 L128.11,-52.01 L129.49,-52.32 L130.84,-52.66 L132.16,-53.04 L133.46,-53.45 L134.74,-53.91 L135.99,-54.41 L137.21,-54.95" fill="none" stroke="black" stroke-width="18.00" stroke-linecap="butt" stroke-linejoin="round"/></mask></defs><rect x="-100" y="-100" width="200" height="200" fill="#FFFFFF" mask="url(#mw)"/></svg>